<svg width="112" height="50" viewBox="0 0 112 50" fill="none" xmlns="http://www.w3.org/2000/svg">
<ellipse cx="24.1818" cy="25" rx="24.1818" ry="25" fill="#245D3B"/>
<path d="M24.7243 20.6479H31.2255C30.4963 13.0681 34.5672 11.3951 36.6937 11.5061C42.3807 12.1528 41.4126 17.8701 40.2177 20.6479C39.3914 23.1852 29.2204 33.1479 24.2383 37.812V43.1603H41.919C44.6409 41.0707 46.3746 37.4389 46.9011 35.8842H34.628C43.9604 29.914 47.6302 20.7101 48.2986 16.8543C46.8404 10.6354 42.3037 6.4273 40.2177 5.1006C25.3441 3.55831 23.6914 14.8228 24.7243 20.6479Z" fill="#E4ABAA"/>
<path d="M68.5217 40.1731C66.1537 40.1731 64.0844 39.7144 62.3137 38.7971C60.5644 37.8584 59.2204 36.5997 58.2817 35.0211C57.3644 33.4211 56.9057 31.6611 56.9057 29.7411C56.9057 27.6931 57.4284 25.8904 58.4737 24.3331C59.5404 22.7757 60.991 21.5704 62.8257 20.7171C64.6817 19.8637 66.7617 19.4371 69.0657 19.4371C70.1537 19.4371 71.199 19.5437 72.2017 19.7571C73.2044 19.9491 74.0364 20.2157 74.6977 20.5571C74.8684 20.6424 74.9644 20.7171 74.9857 20.7811C75.0284 20.8451 75.0604 21.0157 75.0817 21.2931L75.4977 25.2611C75.4977 25.3251 75.4337 25.3677 75.3057 25.3891C75.199 25.4104 75.135 25.3784 75.1137 25.2931C74.6657 23.7997 73.8657 22.5517 72.7137 21.5491C71.583 20.5251 70.1004 20.0131 68.2657 20.0131C66.6657 20.0131 65.2257 20.3864 63.9457 21.1331C62.6657 21.8797 61.6524 22.9571 60.9057 24.3651C60.1804 25.7517 59.8177 27.3731 59.8177 29.2291C59.8177 31.1064 60.191 32.8451 60.9377 34.4451C61.6844 36.0237 62.7724 37.2931 64.2017 38.2531C65.6524 39.2131 67.3697 39.6931 69.3537 39.6931C70.8044 39.6931 71.8177 39.4157 72.3937 38.8611C72.9697 38.2851 73.2577 37.2611 73.2577 35.7891C73.2577 34.6797 73.183 33.9117 73.0337 33.4851C72.9057 33.0371 72.607 32.7384 72.1377 32.5891C71.6897 32.4397 70.8897 32.3651 69.7377 32.3651C69.6097 32.3651 69.5457 32.2797 69.5457 32.1091C69.5457 32.0451 69.5564 31.9917 69.5777 31.9491C69.6204 31.8851 69.663 31.8531 69.7057 31.8531C71.4124 31.9597 72.799 32.0131 73.8657 32.0131C74.911 32.0131 75.9884 31.9811 77.0977 31.9171C77.1404 31.9171 77.1724 31.9491 77.1937 32.0131C77.2364 32.0557 77.2577 32.0984 77.2577 32.1411C77.2577 32.2904 77.2044 32.3651 77.0977 32.3651C76.607 32.3437 76.2657 32.4184 76.0737 32.5891C75.8817 32.7384 75.7537 33.0584 75.6897 33.5491C75.647 34.0397 75.6257 34.8931 75.6257 36.1091C75.6257 37.0691 75.6577 37.7517 75.7217 38.1571C75.807 38.5624 75.8497 38.8184 75.8497 38.9251C75.8497 39.0531 75.8284 39.1384 75.7857 39.1811C75.743 39.2237 75.647 39.2664 75.4977 39.3091C72.8097 39.8851 70.4844 40.1731 68.5217 40.1731ZM84.9937 37.1971C84.9937 37.8584 85.047 38.3384 85.1537 38.6371C85.2817 38.9357 85.5164 39.1384 85.8577 39.2451C86.2204 39.3517 86.7964 39.4051 87.5857 39.4051C87.6284 39.4051 87.6497 39.4691 87.6497 39.5971C87.6497 39.7251 87.6284 39.7891 87.5857 39.7891C86.903 39.7891 86.3697 39.7784 85.9857 39.7571L83.6817 39.7251L81.4417 39.7571C81.0364 39.7784 80.4817 39.7891 79.7777 39.7891C79.735 39.7891 79.7137 39.7251 79.7137 39.5971C79.7137 39.4691 79.735 39.4051 79.7777 39.4051C80.5457 39.4051 81.111 39.3517 81.4737 39.2451C81.8364 39.1384 82.0817 38.9357 82.2097 38.6371C82.359 38.3171 82.4337 37.8371 82.4337 37.1971V22.3811C82.4337 21.7411 82.359 21.2717 82.2097 20.9731C82.0817 20.6744 81.8364 20.4717 81.4737 20.3651C81.111 20.2371 80.5457 20.1731 79.7777 20.1731C79.735 20.1731 79.7137 20.1091 79.7137 19.9811C79.7137 19.8531 79.735 19.7891 79.7777 19.7891L81.4417 19.8211C82.3804 19.8637 83.127 19.8851 83.6817 19.8851C84.3004 19.8851 85.079 19.8637 86.0177 19.8211L87.5857 19.7891C87.6284 19.7891 87.6497 19.8531 87.6497 19.9811C87.6497 20.1091 87.6284 20.1731 87.5857 20.1731C86.8177 20.1731 86.2524 20.2371 85.8897 20.3651C85.5484 20.4931 85.3137 20.7171 85.1857 21.0371C85.0577 21.3357 84.9937 21.8051 84.9937 22.4451V37.1971ZM93.9845 23.3731C93.9845 24.1837 94.1871 24.8984 94.5925 25.5171C94.9978 26.1144 95.4885 26.6371 96.0645 27.0851C96.6405 27.5117 97.4405 28.0344 98.4645 28.6531C99.5311 29.3144 100.374 29.8904 100.992 30.3811C101.632 30.8504 102.176 31.4371 102.624 32.1411C103.072 32.8451 103.296 33.6771 103.296 34.6371C103.296 35.6824 103.019 36.6317 102.464 37.4851C101.931 38.3171 101.152 38.9784 100.128 39.4691C99.1258 39.9384 97.9525 40.1731 96.6085 40.1731C95.7551 40.1731 94.9125 40.0664 94.0805 39.8531C93.2485 39.6611 92.5231 39.3731 91.9045 38.9891C91.7978 38.9251 91.7231 38.8504 91.6805 38.7651C91.6378 38.6797 91.6165 38.5517 91.6165 38.3811L91.2965 33.8051C91.2751 33.7197 91.3178 33.6664 91.4245 33.6451C91.5525 33.6237 91.6271 33.6557 91.6485 33.7411C92.1605 35.3624 92.8751 36.7384 93.7925 37.8691C94.7098 38.9997 95.9045 39.5651 97.3765 39.5651C98.3791 39.5651 99.2218 39.2984 99.9045 38.7651C100.587 38.2104 100.928 37.3144 100.928 36.0771C100.928 35.1384 100.715 34.3171 100.288 33.6131C99.8618 32.9091 99.3391 32.3224 98.7205 31.8531C98.1018 31.3624 97.2805 30.8077 96.2565 30.1891C95.2538 29.5491 94.4538 29.0051 93.8565 28.5571C93.2805 28.0877 92.7898 27.5224 92.3845 26.8611C91.9791 26.1784 91.7765 25.3891 91.7765 24.4931C91.7765 23.4051 92.0645 22.4771 92.6405 21.7091C93.2378 20.9411 94.0058 20.3757 94.9445 20.0131C95.9045 19.6291 96.9071 19.4371 97.9525 19.4371C99.3605 19.4371 100.651 19.6824 101.824 20.1731C102.144 20.3224 102.304 20.5144 102.304 20.7491L102.464 24.7491C102.464 24.8344 102.4 24.8877 102.272 24.9091C102.166 24.9091 102.102 24.8664 102.08 24.7811C101.846 23.6291 101.344 22.5411 100.576 21.5171C99.8298 20.4931 98.7525 19.9811 97.3445 19.9811C96.2778 19.9811 95.4458 20.3011 94.8485 20.9411C94.2725 21.5811 93.9845 22.3917 93.9845 23.3731Z" fill="#245D3B"/>
</svg>
