<svg width="115" height="110" viewBox="0 0 115 110" fill="none" xmlns="http://www.w3.org/2000/svg">
<path d="M5.22727 23.1569V17.3672C3.84091 17.3672 2.51134 17.9772 1.53103 19.0629C0.550729 20.1487 0 21.6213 0 23.1569H5.22727ZM62.7273 23.1569H67.9545C67.9545 21.6213 67.4038 20.1487 66.4235 19.0629C65.4432 17.9772 64.1136 17.3672 62.7273 17.3672V23.1569ZM62.7273 34.7362V28.9465C61.3409 28.9465 60.0113 29.5565 59.031 30.6423C58.0507 31.7281 57.5 33.2007 57.5 34.7362H62.7273ZM5.22727 28.9465H62.7273V17.3672H5.22727V28.9465ZM57.5 23.1569V92.6329H67.9545V23.1569H57.5ZM10.4545 81.0535V23.1569H0V81.0535H10.4545ZM62.7273 40.5259H88.8636V28.9465H62.7273V40.5259ZM104.545 57.8949V81.0535H115V57.8949H104.545ZM67.9545 92.6329V34.7362H57.5V92.6329H67.9545ZM92.5593 96.7262C91.5791 97.8116 90.2497 98.4213 88.8636 98.4213C87.4775 98.4213 86.1482 97.8116 85.1679 96.7262L77.7766 104.913C80.7174 108.169 84.7054 109.998 88.8636 109.998C93.0219 109.998 97.0099 108.169 99.9507 104.913L92.5593 96.7262ZM85.1679 88.5396C86.1482 87.4542 87.4775 86.8444 88.8636 86.8444C90.2497 86.8444 91.5791 87.4542 92.5593 88.5396L99.9507 80.353C97.0099 77.0968 93.0219 75.2676 88.8636 75.2676C84.7054 75.2676 80.7174 77.0968 77.7766 80.353L85.1679 88.5396ZM29.832 96.7262C28.8518 97.8116 27.5224 98.4213 26.1364 98.4213C24.7503 98.4213 23.4209 97.8116 22.4407 96.7262L15.0493 104.913C17.9901 108.169 21.9781 109.998 26.1364 109.998C30.2946 109.998 34.2826 108.169 37.2234 104.913L29.832 96.7262ZM22.4407 88.5396C23.4209 87.4542 24.7503 86.8444 26.1364 86.8444C27.5224 86.8444 28.8518 87.4542 29.832 88.5396L37.2234 80.353C34.2826 77.0968 30.2946 75.2676 26.1364 75.2676C21.9781 75.2676 17.9901 77.0968 15.0493 80.353L22.4407 88.5396ZM92.5593 88.5396C93.5839 89.6686 94.0909 91.1449 94.0909 92.6329H104.545C104.545 88.198 103.014 83.7399 99.9507 80.353L92.5593 88.5396ZM94.0909 92.6329C94.0906 94.1683 93.5397 95.6407 92.5593 96.7262L99.9507 104.913C102.892 101.656 104.545 97.2391 104.545 92.6329H94.0909ZM78.4091 86.8432H62.7273V98.4225H78.4091V86.8432ZM85.1679 96.7262C84.1876 95.6407 83.6367 94.1683 83.6364 92.6329H73.1818C73.1818 97.0678 74.7134 101.526 77.7766 104.913L85.1679 96.7262ZM83.6364 92.6329C83.6367 91.0975 84.1876 89.6251 85.1679 88.5396L77.7766 80.353C74.8355 83.6096 73.1827 88.0267 73.1818 92.6329H83.6364ZM22.4407 96.7262C21.4603 95.6407 20.9094 94.1683 20.9091 92.6329H10.4545C10.4545 97.0678 11.9861 101.526 15.0493 104.913L22.4407 96.7262ZM20.9091 92.6329C20.9094 91.0975 21.4603 89.6251 22.4407 88.5396L15.0493 80.353C12.1082 83.6096 10.4554 88.0267 10.4545 92.6329H20.9091ZM62.7273 86.8432H36.5909V98.4225H62.7273V86.8432ZM29.832 88.5396C30.8566 89.6686 31.3636 91.1449 31.3636 92.6329H41.8182C41.8182 88.198 40.2866 83.7399 37.2234 80.353L29.832 88.5396ZM31.3636 92.6329C31.3633 94.1683 30.8124 95.6407 29.832 96.7262L37.2234 104.913C40.1645 101.656 41.8173 97.2391 41.8182 92.6329H31.3636ZM104.545 81.0535C104.545 82.5891 103.995 84.0617 103.014 85.1475C102.034 86.2332 100.705 86.8432 99.3182 86.8432V98.4225C103.477 98.4225 107.466 96.5926 110.407 93.3353C113.348 90.078 115 85.6601 115 81.0535H104.545ZM88.8636 40.5259C93.0227 40.5259 97.0114 42.3558 99.9524 45.6131C102.893 48.8704 104.545 53.2883 104.545 57.8949H115C115 54.0933 114.324 50.329 113.01 46.8168C111.697 43.3046 109.772 40.1134 107.345 37.4253C104.918 34.7372 102.037 32.6049 98.8656 31.1501C95.6946 29.6953 92.2959 28.9465 88.8636 28.9465V40.5259ZM0 81.0535C0 85.6601 1.65219 90.078 4.5931 93.3353C7.53401 96.5926 11.5227 98.4225 15.6818 98.4225V86.8432C14.2955 86.8432 12.9659 86.2332 11.9856 85.1475C11.0053 84.0617 10.4545 82.5891 10.4545 81.0535H0Z" fill="#D16E82"/>
<path opacity="0.16" d="M62.7266 23.1602H5.22656V81.0568C5.22656 84.1279 6.32802 87.0731 8.28863 89.2447C10.2492 91.4162 12.9084 92.6362 15.6811 92.6362C15.6811 89.5652 16.7826 86.6199 18.7432 84.4484C20.7038 82.2768 23.3629 81.0568 26.1357 81.0568C28.9084 81.0568 31.5675 82.2768 33.5281 84.4484C35.4887 86.6199 36.5902 89.5652 36.5902 92.6362H62.7266V23.1602Z" fill="#D16E82"/>
<path d="M13.0684 5.78967C13.0684 4.25415 13.6191 2.78153 14.5994 1.69575C15.5797 0.609981 16.9093 0 18.2956 0C22.4547 0 26.4434 1.82994 29.3844 5.08727C32.3253 8.34459 33.9774 12.7625 33.9774 17.369V23.1587H28.7502C24.5911 23.1587 20.6024 21.3287 17.6615 18.0714C14.7205 14.8141 13.0684 10.3962 13.0684 5.78967ZM54.8865 5.78967C54.8865 4.25415 54.3358 2.78153 53.3555 1.69575C52.3752 0.609981 51.0456 0 49.6593 0C45.5002 0 41.5115 1.82994 38.5705 5.08727C35.6296 8.34459 33.9774 12.7625 33.9774 17.369V23.1587H39.2047C43.3638 23.1587 47.3525 21.3287 50.2934 18.0714C53.2344 14.8141 54.8865 10.3962 54.8865 5.78967Z" fill="#D16E82"/>
</svg>
