<svg width="110" height="110" viewBox="0 0 110 110" fill="none" xmlns="http://www.w3.org/2000/svg">
<path opacity="0.2" fill-rule="evenodd" clip-rule="evenodd" d="M56.0781 110.001C85.8602 110.001 110 85.8623 110 56.0808C110 26.2994 85.8602 2.16016 56.0781 2.16016C26.296 2.16016 2.15625 26.2994 2.15625 56.0808C2.15625 85.8623 26.296 110.001 56.0781 110.001ZM56.0781 101.374C81.0935 101.374 101.372 81.0957 101.372 56.0808C101.372 31.0659 81.0935 10.7875 56.0781 10.7875C31.0627 10.7875 10.7837 31.0659 10.7837 56.0808C10.7837 81.0957 31.0627 101.374 56.0781 101.374Z" fill="#D16E82"/>
<g opacity="0.2">
<path d="M66.8643 73.0878C79.9695 73.0878 90.5899 68.8001 90.5899 63.5029C90.5899 58.2057 79.9695 53.918 66.8643 53.918L43.1387 63.5029C43.1387 68.8001 53.7591 73.0878 66.8643 73.0878Z" fill="#D16E82"/>
<path fill-rule="evenodd" clip-rule="evenodd" d="M76.333 63.5029C73.75 62.9527 71.122 62.6408 68.482 62.5712L63.9957 64.3829C64.9245 64.4347 65.8808 64.4605 66.8643 64.4605C70.4576 64.4605 73.68 64.0853 76.333 63.5029ZM49.743 70.1416C47.3532 69.1365 45.5026 67.9201 44.3767 66.5699C43.5744 65.608 43.1387 64.577 43.1387 63.5072L66.8643 53.918C79.9695 53.918 90.5899 58.2101 90.5899 63.5029C90.5899 68.8001 79.9695 73.0878 66.8643 73.0878C60.1348 73.0878 54.0611 71.9577 49.743 70.1416Z" fill="#D16E82"/>
<path d="M66.8643 88.4327C79.9695 88.4327 90.5899 84.1406 90.5899 78.8478V62.5508H43.1387V78.8478C43.1387 84.1406 53.7591 88.4327 66.8643 88.4327Z" fill="#D16E82"/>
<path fill-rule="evenodd" clip-rule="evenodd" d="M81.9624 76.8894C81.4616 77.1679 80.9428 77.4129 80.4095 77.6227C77.3769 78.8521 72.5886 79.8054 66.8643 79.8054C61.1399 79.8054 56.3517 78.8521 53.3191 77.627C52.7857 77.4158 52.2669 77.1694 51.7662 76.8894V71.1781H81.9624V76.8894ZM90.5899 62.5508V78.8478C90.5899 84.1406 79.9695 88.4327 66.8643 88.4327C53.7591 88.4327 43.1387 84.1406 43.1387 78.8478V62.5508H90.5899Z" fill="#D16E82"/>
<path d="M69.0216 37.624C69.0216 42.9212 58.4011 47.2089 45.2959 47.2089C32.1908 47.2089 21.5703 42.9212 21.5703 37.624C21.5703 32.3268 32.1908 28.0391 45.2959 28.0391C58.4011 28.0391 69.0216 32.3311 69.0216 37.624Z" fill="#D16E82"/>
<path fill-rule="evenodd" clip-rule="evenodd" d="M54.7646 37.624C51.6513 36.97 48.4772 36.649 45.2959 36.6664C41.7026 36.6664 38.4802 37.0417 35.8273 37.624C38.4802 38.2063 41.7026 38.5816 45.2959 38.5816C48.8893 38.5816 52.1117 38.2063 54.7646 37.624ZM45.2959 47.2089C58.4011 47.2089 69.0216 42.9212 69.0216 37.624C69.0216 32.3268 58.4011 28.0391 45.2959 28.0391C32.1908 28.0391 21.5703 32.3311 21.5703 37.624C21.5703 42.9212 32.1908 47.2089 45.2959 47.2089Z" fill="#D16E82"/>
<path d="M45.2959 62.5493C58.4011 62.5493 69.0216 58.2572 69.0216 52.9644V38.8242H21.5703V52.9644C21.5703 58.2572 32.1908 62.5493 45.2959 62.5493Z" fill="#D16E82"/>
<path fill-rule="evenodd" clip-rule="evenodd" d="M60.3941 51.006C59.8932 51.2845 59.3744 51.5295 58.8411 51.7393C55.8085 52.9687 51.0203 53.922 45.2959 53.922C39.5716 53.922 34.7833 52.9687 31.7508 51.7436C31.2173 51.5324 30.6985 51.286 30.1978 51.006V47.4515H60.3941V51.006ZM69.0216 38.8242V52.9644C69.0216 58.2572 58.4011 62.5493 45.2959 62.5493C32.1908 62.5493 21.5703 58.2572 21.5703 52.9644V38.8242H69.0216Z" fill="#D16E82"/>
</g>
<path fill-rule="evenodd" clip-rule="evenodd" d="M78.52 54.4158C74.5384 52.8068 68.896 51.7629 62.5505 51.7629V47.4492C69.3101 47.4492 75.5262 48.5535 80.1333 50.4127C82.4325 51.3444 84.4384 52.5005 85.9008 53.9024C87.3675 55.3044 88.433 57.0945 88.433 59.191C88.433 61.2917 87.3718 63.0776 85.9008 64.4838C84.4341 65.8815 82.4325 67.0418 80.1333 67.9693C75.5262 69.8328 69.3058 70.9327 62.5505 70.9327C55.7908 70.9327 49.5747 69.8328 44.9676 67.9693C42.6684 67.0418 40.6625 65.8815 39.2001 64.4838C37.7335 63.0776 36.668 61.2917 36.668 59.191H40.9817C40.9817 59.7388 41.2492 60.4721 42.1809 61.3651C43.1127 62.258 44.588 63.1639 46.581 63.9705C50.5626 65.5795 56.2049 66.6191 62.5505 66.6191C68.8917 66.6191 74.5427 65.5795 78.52 63.9705C80.5129 63.1639 81.9839 62.258 82.92 61.3651C83.8561 60.4721 84.1192 59.7388 84.1192 59.191C84.1192 58.6432 83.8518 57.9098 82.92 57.0212C81.9839 56.124 80.5129 55.2181 78.52 54.4158Z" fill="#D16E82"/>
<path fill-rule="evenodd" clip-rule="evenodd" d="M38.8248 58.9531C39.3969 58.9531 39.9455 59.1804 40.35 59.5848C40.7545 59.9893 40.9817 60.5379 40.9817 61.11V74.5254C40.9817 75.0776 41.2492 75.8109 42.1809 76.6995C43.117 77.5967 44.588 78.5026 46.581 79.3093C50.5626 80.9139 56.2049 81.9578 62.5505 81.9578C68.8917 81.9578 74.5427 80.9139 78.52 79.3093C80.5129 78.5026 81.9839 77.5967 82.92 76.6995C83.8518 75.8109 84.1192 75.0776 84.1192 74.5297V61.11C84.1192 60.5379 84.3465 59.9893 84.7509 59.5848C85.1554 59.1804 85.7041 58.9531 86.2761 58.9531C86.8481 58.9531 87.3967 59.1804 87.8012 59.5848C88.2057 59.9893 88.433 60.5379 88.433 61.11V74.5254C88.433 76.6305 87.3718 78.4163 85.9008 79.8183C84.4298 81.2202 82.4325 82.3763 80.1333 83.308C75.5262 85.1672 69.3058 86.2715 62.5505 86.2715C55.7908 86.2715 49.5747 85.1672 44.9676 83.308C42.6684 82.3806 40.6625 81.2202 39.2001 79.8183C37.7335 78.4163 36.668 76.6262 36.668 74.5297V61.11C36.668 60.5379 36.8952 59.9893 37.2997 59.5848C37.7042 59.1804 38.2528 58.9531 38.8248 58.9531Z" fill="#D16E82"/>
<path fill-rule="evenodd" clip-rule="evenodd" d="M48.3155 82.9324V66.8598H52.6292V82.9324H48.3155ZM67.296 81.9576V69.0166H71.6097V81.9576H67.296ZM20.6126 31.1384C19.6808 32.027 19.4134 32.7603 19.4134 33.3082C19.4134 33.856 19.6808 34.5893 20.6126 35.4823C21.5444 36.3752 23.0197 37.281 25.0126 38.0877C28.9942 39.6967 34.6366 40.7363 40.9821 40.7363C47.3233 40.7363 52.9743 39.6967 56.9516 38.0877C58.9446 37.281 60.4155 36.3752 61.3516 35.4823C62.2877 34.5893 62.5508 33.856 62.5508 33.3082C62.5508 32.7603 62.2834 32.027 61.3516 31.1384C60.4155 30.2412 58.9446 29.3353 56.9516 28.5286C52.97 26.924 47.3233 25.8801 40.9821 25.8801C34.6409 25.8801 28.9899 26.924 25.0126 28.5286C23.0197 29.3353 21.5487 30.2412 20.6126 31.1384ZM23.3993 24.5299C28.0063 22.6707 34.2268 21.5664 40.9821 21.5664C47.7417 21.5664 53.9579 22.6707 58.5649 24.5299C60.8642 25.4616 62.8701 26.6177 64.3324 28.0196C65.7991 29.4216 66.8646 31.2117 66.8646 33.3082C66.8646 35.4089 65.8034 37.1948 64.3324 38.601C62.8658 39.9986 60.8642 41.159 58.5649 42.0865C53.9579 43.95 47.7374 45.0499 40.9821 45.0499C34.2225 45.0499 28.0063 43.95 23.3993 42.0865C21.1 41.159 19.0941 39.9986 17.6318 38.601C16.1651 37.1948 15.0996 35.4089 15.0996 33.3082C15.0996 31.2117 16.1608 29.4259 17.6318 28.0196C19.1028 26.6134 21.1 25.4616 23.3993 24.5299Z" fill="#D16E82"/>
<path fill-rule="evenodd" clip-rule="evenodd" d="M17.2565 33.0742C17.8285 33.0742 18.3771 33.3015 18.7816 33.7059C19.1861 34.1104 19.4134 34.659 19.4134 35.231V48.6465C19.4134 49.1987 19.6808 49.932 20.6126 50.8206C21.5487 51.7178 23.0197 52.6237 25.0126 53.4303C28.9942 55.035 34.6366 56.0789 40.9821 56.0789C47.3233 56.0789 52.9743 55.035 56.9516 53.4303C58.9446 52.6237 60.4156 51.7178 61.3516 50.8206C62.2834 49.932 62.5509 49.1987 62.5509 48.6508V35.231C62.5509 34.659 62.7781 34.1104 63.1826 33.7059C63.5871 33.3015 64.1357 33.0742 64.7077 33.0742C65.2798 33.0742 65.8284 33.3015 66.2329 33.7059C66.6374 34.1104 66.8646 34.659 66.8646 35.231V48.6465C66.8646 50.7516 65.8034 52.5374 64.3324 53.9394C62.8614 55.3413 60.8642 56.5017 58.565 57.4291C53.9579 59.2883 47.7374 60.3926 40.9821 60.3926C34.2225 60.3926 28.0063 59.2883 23.3993 57.4291C21.1 56.4974 19.0941 55.3413 17.6318 53.9394C16.1651 52.5374 15.0996 50.7473 15.0996 48.6508V35.231C15.0996 34.659 15.3269 34.1104 15.7313 33.7059C16.1358 33.3015 16.6844 33.0742 17.2565 33.0742Z" fill="#D16E82"/>
<path fill-rule="evenodd" clip-rule="evenodd" d="M26.7441 56.0791V41.4688H31.0579V56.0791H26.7441ZM45.7246 56.0791V43.1381H50.0384V56.0791H45.7246Z" fill="#D16E82"/>
<path fill-rule="evenodd" clip-rule="evenodd" d="M53.9219 103.528C81.3185 103.528 103.53 81.3167 103.53 53.9207C103.53 26.5247 81.3185 4.31365 53.9219 4.31365C26.5252 4.31365 4.31375 26.5247 4.31375 53.9207C4.31375 81.3167 26.5252 103.528 53.9219 103.528ZM53.9219 107.841C83.704 107.841 107.844 83.7021 107.844 53.9207C107.844 24.1392 83.704 0 53.9219 0C24.1397 0 0 24.1392 0 53.9207C0 83.7021 24.1397 107.841 53.9219 107.841Z" fill="#D16E82"/>
</svg>
