<svg width="110" height="110" viewBox="0 0 110 110" fill="none" xmlns="http://www.w3.org/2000/svg">
<path opacity="0.5" d="M41.7557 6.60307C40.8876 7.38216 39.9788 8.11467 39.0331 8.79753C37.3941 9.89752 35.5515 10.6565 33.6155 11.0415C32.7739 11.2065 31.8939 11.278 30.1394 11.4155C25.7338 11.7675 23.5282 11.9435 21.6912 12.5925C19.5901 13.333 17.6817 14.5351 16.1064 16.1103C14.5312 17.6855 13.329 19.5938 12.5884 21.6948C11.9394 23.5318 11.7634 25.7373 11.4114 30.1427C11.3482 31.3071 11.2234 32.4674 11.0374 33.6186C10.6524 35.5546 9.89337 37.3971 8.79334 39.036C8.31483 39.751 7.74282 40.422 6.59879 41.7585C3.73322 45.1244 2.29768 46.8074 1.45616 48.5674C-0.485387 52.6373 -0.485387 57.3672 1.45616 61.4372C2.29768 63.1971 3.73322 64.8801 6.59879 68.2461C7.74282 69.5825 8.31483 70.2535 8.79334 70.9685C9.89337 72.6075 10.6524 74.45 11.0374 76.3859C11.2024 77.2274 11.2739 78.1074 11.4114 79.8619C11.7634 84.2673 11.9394 86.4728 12.5884 88.3097C13.329 90.4107 14.5312 92.319 16.1064 93.8942C17.6817 95.4695 19.5901 96.6715 21.6912 97.4121C23.5282 98.0611 25.7338 98.2371 30.1394 98.5891C31.8939 98.7266 32.7739 98.7981 33.6155 98.9631C35.5515 99.3481 37.3941 100.113 39.0331 101.207C39.7481 101.686 40.4191 102.257 41.7557 103.401C45.1217 106.267 46.8048 107.702 48.5648 108.544C52.6349 110.485 57.3651 110.485 61.4352 108.544C63.1952 107.702 64.8782 106.267 68.2443 103.401C69.5809 102.257 70.2519 101.686 70.9669 101.207C72.6059 100.107 74.4485 99.3481 76.3845 98.9631C77.2261 98.7981 78.1061 98.7266 79.8606 98.5891C84.2662 98.2371 86.4718 98.0611 88.3088 97.4121C90.4099 96.6715 92.3183 95.4695 93.8936 93.8942C95.4688 92.319 96.671 90.4107 97.4116 88.3097C98.0606 86.4728 98.2366 84.2673 98.5886 79.8619C98.7261 78.1074 98.7976 77.2274 98.9626 76.3859C99.3476 74.45 100.112 72.6075 101.207 70.9685C101.685 70.2535 102.257 69.5825 103.401 68.2461C106.267 64.8801 107.702 63.1971 108.544 61.4372C110.485 57.3672 110.485 52.6373 108.544 48.5674C107.702 46.8074 106.267 45.1244 103.401 41.7585C102.622 40.8904 101.89 39.9817 101.207 39.036C100.106 37.3973 99.3431 35.5556 98.9626 33.6186C98.7766 32.4674 98.6517 31.3071 98.5886 30.1427C98.2366 25.7373 98.0606 23.5318 97.4116 21.6948C96.671 19.5938 95.4688 17.6855 93.8936 16.1103C92.3183 14.5351 90.4099 13.333 88.3088 12.5925C86.4718 11.9435 84.2662 11.7675 79.8606 11.4155C78.6961 11.3523 77.5358 11.2275 76.3845 11.0415C74.4474 10.661 72.6057 9.89816 70.9669 8.79753C70.0212 8.11467 69.1124 7.38216 68.2443 6.60307C64.8782 3.73762 63.1952 2.30214 61.4352 1.46065C59.4262 0.499115 57.2272 0 55 0C52.7728 0 50.5738 0.499115 48.5648 1.46065C46.8048 2.30214 45.1217 3.73762 41.7557 6.60307Z" fill="#D16E82"/>
<path d="M76.065 33.9385C76.9044 34.7781 77.3759 35.9166 77.3759 37.1037C77.3759 38.2909 76.9044 39.4294 76.065 40.2689L40.2591 76.0734C39.411 76.8661 38.2881 77.2985 37.1273 77.2792C35.9665 77.2599 34.8586 76.7905 34.0373 75.9699C33.216 75.1494 32.7456 74.0419 32.7253 72.8812C32.705 71.7205 33.1364 70.5972 33.9285 69.7485L69.7344 33.9385C70.1502 33.5221 70.644 33.1918 71.1876 32.9664C71.7312 32.741 72.314 32.625 72.9024 32.625C73.4909 32.625 74.0736 32.741 74.6172 32.9664C75.1609 33.1918 75.6547 33.5221 76.0705 33.9385M75.889 69.93C75.889 71.5126 75.2603 73.0304 74.1411 74.1495C73.022 75.2687 71.5041 75.8974 69.9214 75.8974C68.3386 75.8974 66.8208 75.2687 65.7016 74.1495C64.5824 73.0304 63.9537 71.5126 63.9537 69.93C63.9537 68.3473 64.5824 66.8295 65.7016 65.7104C66.8208 64.5913 68.3386 63.9626 69.9214 63.9626C71.5041 63.9626 73.022 64.5913 74.1411 65.7104C75.2603 66.8295 75.889 68.3473 75.889 69.93ZM40.0776 46.0548C41.6603 46.0548 43.1782 45.4261 44.2974 44.307C45.4165 43.1879 46.0453 41.6701 46.0453 40.0874C46.0453 38.5048 45.4165 36.987 44.2974 35.8679C43.1782 34.7487 41.6603 34.12 40.0776 34.12C38.4949 34.12 36.977 34.7487 35.8579 35.8679C34.7387 36.987 34.11 38.5048 34.11 40.0874C34.11 41.6701 34.7387 43.1879 35.8579 44.307C36.977 45.4261 38.4949 46.0548 40.0776 46.0548Z" fill="#D16E82"/>
</svg>
