<svg width="110" height="110" viewBox="0 0 110 110" fill="none" xmlns="http://www.w3.org/2000/svg">
<path opacity="0.2" fill-rule="evenodd" clip-rule="evenodd" d="M82.0405 13.2405L81.56 13.715C79.3615 15.907 78.0056 17.1562 76.8866 17.9669C75.8225 16.6999 74.7671 15.4267 73.7206 14.1474C71.8184 11.9013 70.2387 10.2738 68.6194 9.03061C66.6448 7.50519 64.6833 6.62837 62.5704 6.62837C61.4559 6.63638 60.3786 6.8746 59.3386 7.34304C56.7913 8.47209 54.6587 10.5921 51.802 14.2375C51.44 14.6939 50.5383 15.871 49.9985 16.5797L49.5838 17.1202L48.8861 18.003L48.7808 17.9309C47.6026 17.1081 46.1875 15.853 43.8508 13.6249L43.3966 13.1925C39.8883 9.82936 38.9339 8.94653 37.4661 7.85351C36.2681 6.96468 35.2347 6.39415 34.1092 6.14192C33.0821 5.88164 31.9846 5.99222 31.0446 6.45072C30.1045 6.90922 29.394 7.68041 29.0607 8.60421C27.2669 13.1436 26.3558 17.934 26.3686 22.7594C26.3686 43.0584 37.5319 57.5078 57.0809 59.7539C56.368 60.7372 55.988 61.8901 55.9883 63.069V85.7222C53.362 82.8875 50.2552 80.0769 46.8391 77.4705C35.7547 68.9785 22.0243 66.6363 15.8569 73.3446C9.68938 80.0529 14.6062 91.98 25.6906 100.472C36.301 108.597 53.7504 112.771 61.0368 107.949C61.4756 108.041 61.921 108.095 62.373 108.111C69.8108 112.675 86.9837 108.507 97.469 100.472C108.56 91.98 113.477 80.0529 107.309 73.3446C101.142 66.6363 87.4049 68.9785 76.3206 77.4705C73.7272 79.4523 71.3181 81.5483 69.1526 83.6802V63.069C69.1536 61.8927 68.7759 60.7421 68.0665 59.7599C87.609 57.5078 98.7723 43.0644 98.7723 22.7654C98.7723 17.8408 97.8508 13.0604 96.0736 8.60421C95.739 7.68285 95.029 6.91409 94.0906 6.45691C93.1521 5.99973 92.057 5.88911 91.0317 6.14792C89.9127 6.40616 88.8991 6.98871 87.7406 7.88955C86.3189 8.98857 85.4369 9.84137 82.0405 13.2345" fill="#D16E82"/>
<path fill-rule="evenodd" clip-rule="evenodd" d="M68.8771 7.23663L68.3966 7.71107C66.1982 9.90312 64.8422 11.1523 63.7233 11.963C62.6591 10.696 61.6038 9.42275 60.5573 8.14348C58.655 5.89738 57.0753 4.26987 55.4561 3.02671C53.4814 1.50128 51.52 0.624465 49.4071 0.624465C48.2925 0.632472 47.2152 0.870694 46.1752 1.33913C43.6279 2.46818 41.4953 4.58816 38.6387 8.23356C38.2767 8.68999 37.3749 9.86709 36.8352 10.5757L36.4205 11.1163L35.7228 11.9991L35.6175 11.927C34.4393 11.1042 33.0241 9.84907 30.6874 7.62099L30.2333 7.18859C26.725 3.82545 25.7706 2.94263 24.3027 1.84961C23.1048 0.960778 22.0714 0.390246 20.9458 0.138011C19.9188 -0.122271 18.8213 -0.0116843 17.8812 0.446815C16.9411 0.905314 16.2307 1.67651 15.8973 2.60031C14.1035 7.1397 13.1924 11.9301 13.2052 16.7555C13.2052 38.8922 26.4748 54.0623 49.4071 54.0623C72.3393 54.0623 85.609 38.8922 85.609 16.7555C85.6196 11.9297 84.7063 7.13934 82.9103 2.60031C82.5756 1.67895 81.8656 0.910178 80.9272 0.452999C79.9888 -0.00418086 78.8937 -0.114801 77.8683 0.144016C76.7494 0.402257 75.7357 0.984801 74.5773 1.88564C73.1555 2.98467 72.2735 3.83746 68.8771 7.23063M19.7874 16.7555C19.7874 13.5125 20.2547 10.3355 21.163 7.31471C22.0385 8.0594 23.1706 9.1284 25.4678 11.3325L25.9285 11.7709C28.5021 14.2272 30.0753 15.6144 31.6089 16.6955C34.6038 18.7854 37.3617 19.5241 39.6655 17.1219C40.2842 16.4793 40.9161 15.7105 41.7915 14.5815C41.8508 14.5154 42.0285 14.2812 42.2654 13.9689L43.99 11.7288C46.2082 8.90619 47.8405 7.27867 49.0451 6.74417C49.1583 6.68607 49.2803 6.64357 49.4071 6.61805C49.6638 6.61805 50.3088 6.91834 51.2106 7.60898C52.3954 8.50982 53.7118 9.87309 55.3442 11.8129C55.1336 11.5607 58.9315 16.197 59.8201 17.1158C62.1238 19.5301 64.8883 18.7734 67.7976 16.6714C69.2852 15.5964 70.8057 14.1971 73.2542 11.7589L73.7413 11.2784C75.8015 9.21247 76.881 8.15549 77.6906 7.42281C78.5807 10.4651 79.0299 13.6007 79.0268 16.7495C79.0268 35.8353 68.3374 48.0567 49.4071 48.0567C30.4768 48.0567 19.7874 35.8353 19.7874 16.7555Z" fill="#D16E82"/>
<path d="M46.1152 57.0653C46.1152 56.2689 46.462 55.5051 47.0792 54.942C47.6964 54.3789 48.5335 54.0625 49.4063 54.0625C50.2792 54.0625 51.1163 54.3789 51.7335 54.942C52.3507 55.5051 52.6974 56.2689 52.6974 57.0653V96.1017C52.6974 96.8981 52.3507 97.6619 51.7335 98.225C51.1163 98.7881 50.2792 99.1045 49.4063 99.1045C48.5335 99.1045 47.6964 98.7881 47.0792 98.225C46.462 97.6619 46.1152 96.8981 46.1152 96.1017V57.0653Z" fill="#D16E82"/>
<path fill-rule="evenodd" clip-rule="evenodd" d="M63.1551 71.4629C50.1554 81.4142 41.5196 94.2001 47.5094 100.716C53.6242 107.364 72.9099 103.191 84.3036 94.4704C95.3946 85.9785 100.311 74.0393 94.144 67.3371C87.9765 60.6288 74.2395 62.971 63.1551 71.4629ZM80.0713 89.8641C71.1064 96.7345 55.533 100.098 52.5579 96.8546C50.162 94.2542 57.1654 83.8825 67.3809 76.0632C76.0562 69.421 85.9228 67.7395 89.102 71.1987C92.2812 74.6579 88.7466 83.2219 80.0713 89.8641Z" fill="#D16E82"/>
<path fill-rule="evenodd" clip-rule="evenodd" d="M33.6743 71.4629C46.6741 81.4142 55.3164 94.2001 49.3201 100.716C43.2118 107.364 23.9195 103.191 12.5258 94.4704C1.43488 85.9785 -3.47541 74.0393 2.69207 67.3371C8.85956 60.6288 22.5834 62.971 33.6743 71.4629ZM16.7647 89.8641C25.7362 96.7345 41.303 100.098 44.2847 96.8546C46.6806 94.2542 39.6772 83.8825 29.4551 76.0632C20.7798 69.421 10.9198 67.7395 7.734 71.1987C4.5614 74.6519 8.08944 83.2219 16.7647 89.8641Z" fill="#D16E82"/>
</svg>
