<svg width="130" height="110" viewBox="0 0 130 110" fill="none" xmlns="http://www.w3.org/2000/svg">
<path opacity="0.2" d="M116.072 9.16365V28.6699C113.489 26.5395 110.503 24.9343 107.289 23.9467C104.074 22.9591 100.693 22.6086 97.3405 22.9154C93.988 23.2222 90.73 24.1802 87.7541 25.7342C84.7782 27.2883 82.1431 29.4078 80.0004 31.9707C77.8578 34.5336 76.2499 37.4893 75.2694 40.6677C74.2888 43.8462 73.9548 47.1846 74.2868 50.4909C74.6187 53.7972 75.61 57.0061 77.2035 59.9329C78.797 62.8597 80.9613 65.4467 83.5719 67.5449V87.0511H9.28548C8.05411 87.0511 6.87317 86.5684 6.00245 85.7092C5.13174 84.85 4.64258 83.6846 4.64258 82.4695V9.16365C4.64258 7.94853 5.13174 6.78318 6.00245 5.92396C6.87317 5.06474 8.05411 4.58203 9.28548 4.58203H111.429C112.661 4.58203 113.842 5.06474 114.712 5.92396C115.583 6.78318 116.072 7.94853 116.072 9.16365Z" fill="#D16E82"/>
<path d="M60.3577 54.9794C60.3577 56.1945 59.8686 57.3599 58.9979 58.2191C58.1271 59.0783 56.9462 59.561 55.7148 59.561H27.8574C26.626 59.561 25.4451 59.0783 24.5744 58.2191C23.7037 57.3599 23.2145 56.1945 23.2145 54.9794C23.2145 53.7643 23.7037 52.5989 24.5744 51.7397C25.4451 50.8805 26.626 50.3978 27.8574 50.3978H55.7148C56.9462 50.3978 58.1271 50.8805 58.9979 51.7397C59.8686 52.5989 60.3577 53.7643 60.3577 54.9794ZM55.7148 32.0713H27.8574C26.626 32.0713 25.4451 32.554 24.5744 33.4132C23.7037 34.2725 23.2145 35.4378 23.2145 36.6529C23.2145 37.868 23.7037 39.0334 24.5744 39.8926C25.4451 40.7518 26.626 41.2345 27.8574 41.2345H55.7148C56.9462 41.2345 58.1271 40.7518 58.9979 39.8926C59.8686 39.0334 60.3577 37.868 60.3577 36.6529C60.3577 35.4378 59.8686 34.2725 58.9979 33.4132C58.1271 32.554 56.9462 32.0713 55.7148 32.0713ZM120.715 69.5661V105.377C120.723 106.185 120.514 106.98 120.109 107.682C119.705 108.385 119.119 108.969 118.412 109.376C117.705 109.783 116.902 109.998 116.083 110C115.264 110.002 114.46 109.79 113.751 109.386L99.8224 101.517L85.8937 109.386C85.1848 109.79 84.3803 110.002 83.5618 110C82.7432 109.998 81.9397 109.783 81.2326 109.376C80.5256 108.969 79.9401 108.385 79.5356 107.682C79.1311 106.98 78.922 106.185 78.9294 105.377V91.6323H9.28581C6.82306 91.6323 4.46118 90.6669 2.71975 88.9485C0.978323 87.23 0 84.8993 0 82.4691V9.16323C0 6.73299 0.978323 4.40229 2.71975 2.68385C4.46118 0.965409 6.82306 0 9.28581 0H111.43C113.892 0 116.254 0.965409 117.996 2.68385C119.737 4.40229 120.715 6.73299 120.715 9.16323V26.6478C123.65 29.4213 125.986 32.7524 127.582 36.4404C129.177 40.1284 130 44.0969 130 48.107C130 52.117 129.177 56.0856 127.582 59.7736C125.986 63.4615 123.65 66.7926 120.715 69.5661ZM78.9294 82.4691V69.5661C73.8698 64.751 70.6722 58.3441 69.8884 51.4511C69.1046 44.558 70.7837 37.6111 74.6359 31.8092C78.4882 26.0073 84.272 21.7143 90.9892 19.6711C97.7064 17.6278 104.936 17.9625 111.43 20.6173V9.16323H9.28581V82.4691H78.9294ZM111.43 75.5967C107.753 77.1126 103.807 77.8932 99.8224 77.8932C95.8374 77.8932 91.8921 77.1126 88.2152 75.5967V97.4853L97.501 92.2394C98.2026 91.8436 98.9968 91.6354 99.805 91.6354C100.613 91.6354 101.407 91.8436 102.109 92.2394L111.395 97.4853L111.43 75.5967ZM120.715 48.107C120.715 44.0293 119.49 40.0431 117.194 36.6526C114.899 33.2621 111.636 30.6196 107.818 29.0591C104 27.4986 99.7992 27.0903 95.7464 27.8858C91.6935 28.6814 87.9707 30.645 85.0488 33.5284C82.1268 36.4117 80.137 40.0854 79.3308 44.0847C78.5246 48.0841 78.9384 52.2295 80.5197 55.9969C82.1011 59.7642 84.779 62.9841 88.2148 65.2496C91.6507 67.5151 95.6902 68.7242 99.8224 68.7242C102.566 68.7242 105.283 68.191 107.818 67.1548C110.353 66.1187 112.656 64.6001 114.596 62.6856C116.536 60.7711 118.075 58.4983 119.125 55.9969C120.175 53.4954 120.715 50.8145 120.715 48.107Z" fill="#D16E82"/>
</svg>
