<svg width="45" height="42" viewBox="0 0 45 42" fill="none" xmlns="http://www.w3.org/2000/svg">
<path d="M25.8964 15.8536L26.1863 16.1434L26.5273 15.916C27.9358 14.977 29.5417 14.6022 30.9246 14.7246C32.3136 14.8476 33.4135 15.4603 33.9351 16.4253C34.4515 17.3805 34.4819 18.8331 33.4044 20.816C32.3545 22.748 30.2806 25.1209 26.7376 27.8778C22.7042 24.9906 20.4524 22.5527 19.3752 20.602C18.279 18.617 18.4252 17.201 19.041 16.2773C19.6787 15.3208 20.9155 14.7424 22.2818 14.6552C23.6451 14.5682 25.0221 14.9793 25.8964 15.8536ZM26.4616 28.9085L26.7622 29.1207L27.0542 28.8968C30.8327 26 33.1114 23.4495 34.283 21.2934C35.4556 19.1357 35.5484 17.307 34.8148 15.9497C34.0864 14.6022 32.6239 13.8712 31.0128 13.7285C29.5071 13.5952 27.8154 13.9655 26.3047 14.8736C25.192 13.9459 23.6585 13.5653 22.2181 13.6573C20.6469 13.7576 19.0712 14.4292 18.2089 15.7226C17.3247 17.049 17.2835 18.883 18.4998 21.0855C19.7086 23.2744 22.1843 25.8892 26.4616 28.9085ZM5.73083 3.36125L5.62648 3H5.25047H0.895149C0.813581 2.93139 0.726177 2.81323 0.651493 2.62667C0.554408 2.38416 0.499708 2.07425 0.499756 1.75007C0.499804 1.4259 0.554596 1.11594 0.65173 0.873365C0.726433 0.686805 0.81381 0.568625 0.895287 0.5H6.08716C6.51086 0.833756 7.22352 1.64016 7.98196 3.08268C8.80593 4.64985 9.66609 6.93484 10.2581 10.0921L10.3346 10.5H10.7495H43.6209C43.8339 10.6304 44.0585 10.8506 44.2062 11.1792C44.374 11.5524 44.4587 12.1019 44.2645 12.8787C44.1413 13.3713 43.9326 14.2931 43.6658 15.4715C42.8252 19.1842 41.4081 25.4432 40.2752 28.8419C39.9939 29.6857 38.9345 31.1531 37.1515 31.5097C36.7042 31.5992 35.5975 31.6602 34.0361 31.6923C32.4959 31.7239 30.5637 31.7271 28.5031 31.7125C24.3825 31.6834 19.7612 31.5835 16.7634 31.5002L16.7634 31.5H16.7495C15.8784 31.5 13.932 30.9663 13.2239 28.8419C12.4281 26.4545 7.89966 10.8698 5.73083 3.36125ZM21.75 38.5C21.75 40.1569 20.4068 41.5 18.75 41.5C17.0931 41.5 15.75 40.1569 15.75 38.5C15.75 36.8431 17.0931 35.5 18.75 35.5C20.4068 35.5 21.75 36.8431 21.75 38.5ZM37.75 38.5C37.75 40.1569 36.4068 41.5 34.75 41.5C33.0931 41.5 31.75 40.1569 31.75 38.5C31.75 36.8431 33.0931 35.5 34.75 35.5C36.4068 35.5 37.75 36.8431 37.75 38.5ZM26.25 15.5C22.25 11.5 9.74997 16.5 26.75 28.5C41.75 17 32.25 11.5 26.25 15.5Z" stroke="white" />
</svg>
