<svg width="262" height="77" viewBox="0 0 262 77" fill="none" xmlns="http://www.w3.org/2000/svg">
<g filter="url(#filter0_d_1074_323)">
<path d="M38.928 0.799995V1.75999H8.688V32.48H36.72V33.44H8.688V68H0.72V0.799995H38.928ZM85.4813 68H49.0013V0.799995H56.9693V67.04H85.4813V68ZM88.425 36.032C88.425 24.384 91.241 15.552 96.873 9.536C102.569 3.456 109.865 0.415995 118.761 0.415995C127.657 0.415995 134.729 3.04 139.977 8.288C145.289 13.536 147.945 21.92 147.945 33.44C147.945 44.96 145.129 53.664 139.497 59.552C133.865 65.44 126.345 68.384 116.937 68.384C108.809 68.384 102.153 66.048 96.969 61.376C94.281 58.944 92.169 55.584 90.633 51.296C89.161 46.944 88.425 41.856 88.425 36.032ZM118.473 1.376C112.009 1.376 106.697 4.256 102.537 10.016C98.441 15.776 96.393 24.224 96.393 35.36C96.393 46.496 98.345 54.624 102.249 59.744C106.153 64.864 111.337 67.424 117.801 67.424C124.329 67.424 129.641 64.544 133.737 58.784C137.897 52.96 139.977 44.544 139.977 33.536C139.977 22.464 137.993 14.336 134.025 9.152C130.121 3.968 124.937 1.376 118.473 1.376ZM201.749 0.799995C202.965 2.016 203.573 3.584 203.573 5.504C203.573 7.104 203.221 8.736 202.517 10.4L177.941 68L176.885 68.48L152.693 0.799995H160.853L180.917 57.632L201.365 10.4C202.069 8.8 202.421 7.136 202.421 5.408C202.421 3.68 201.941 2.336 200.981 1.376L201.749 0.799995ZM251.366 0.799995V1.75999H221.126V30.56H249.158V31.52H221.126V67.04H253.478V68H213.158V0.799995H251.366Z" fill="white"/>
</g>
<defs>
<filter id="filter0_d_1074_323" x="0.720703" y="0.414062" width="260.756" height="76.0664" filterUnits="userSpaceOnUse" color-interpolation-filters="sRGB">
<feFlood flood-opacity="0" result="BackgroundImageFix"/>
<feColorMatrix in="SourceAlpha" type="matrix" values="0 0 0 0 0 0 0 0 0 0 0 0 0 0 0 0 0 0 127 0" result="hardAlpha"/>
<feOffset dx="4" dy="4"/>
<feGaussianBlur stdDeviation="2"/>
<feComposite in2="hardAlpha" operator="out"/>
<feColorMatrix type="matrix" values="0 0 0 0 0.819608 0 0 0 0 0.431373 0 0 0 0 0.509804 0 0 0 1 0"/>
<feBlend mode="normal" in2="BackgroundImageFix" result="effect1_dropShadow_1074_323"/>
<feBlend mode="normal" in="SourceGraphic" in2="effect1_dropShadow_1074_323" result="shape"/>
</filter>
</defs>
</svg>
