<svg width="30" height="25" viewBox="0 0 30 25" fill="none" xmlns="http://www.w3.org/2000/svg">
<path d="M29.9921 12.4756C29.9921 13.3545 29.2108 14.043 28.3253 14.043H26.6585L26.695 21.8652C26.695 21.9971 26.6846 22.1289 26.6689 22.2607V23.0469C26.6689 24.126 25.7366 25 24.5854 25H23.752C23.6947 25 23.6374 25 23.5801 24.9951C23.5072 25 23.4343 25 23.3614 25H21.6685H20.4184C19.2673 25 18.3349 24.126 18.3349 23.0469V21.875V18.75C18.3349 17.8857 17.59 17.1875 16.6681 17.1875H13.3345C12.4125 17.1875 11.6677 17.8857 11.6677 18.75V21.875V23.0469C11.6677 24.126 10.7353 25 9.58415 25H8.33404H6.67244C6.59431 25 6.51618 24.9951 6.43805 24.9902C6.37554 24.9951 6.31304 25 6.25053 25H5.41713C4.26599 25 3.33362 24.126 3.33362 23.0469V17.5781C3.33362 17.5342 3.33362 17.4854 3.33883 17.4414V14.043H1.66681C0.729229 14.043 0 13.3594 0 12.4756C0 12.0361 0.156263 11.6455 0.520878 11.3037L13.8762 0.390625C14.2408 0.0488281 14.6575 0 15.0221 0C15.3867 0 15.8034 0.0976562 16.116 0.341797L29.4192 11.3037C29.8359 11.6455 30.0442 12.0361 29.9921 12.4756Z" fill="url(#paint0_linear_1032_101)"/>
<defs>
<linearGradient id="paint0_linear_1032_101" x1="15" y1="0" x2="15" y2="25" gradientUnits="userSpaceOnUse">
<stop stop-color="#D16E82"/>
<stop offset="1" stop-color="#E4ABAA"/>
</linearGradient>
</defs>
</svg>
