<svg width="25" height="25" viewBox="0 0 25 25" fill="none" xmlns="http://www.w3.org/2000/svg">
<path d="M13.6719 0.00110092C19.9268 0.00110092 25 5.07412 25 11.3287C25 11.9781 24.4775 12.5006 23.8281 12.5006C23.1787 12.5006 22.6562 11.9781 22.6562 11.3287C22.6562 6.36801 18.6328 2.34475 13.6719 2.34475C13.0225 2.34475 12.5 1.82231 12.5 1.17292C12.5 0.523539 13.0225 0.00110092 13.6719 0.00110092ZM14.0625 9.37569C14.4769 9.37569 14.8743 9.5403 15.1674 9.83331C15.4604 10.1263 15.625 10.5237 15.625 10.9381C15.625 11.3525 15.4604 11.7499 15.1674 12.0429C14.8743 12.3359 14.4769 12.5006 14.0625 12.5006C13.6481 12.5006 13.2507 12.3359 12.9576 12.0429C12.6646 11.7499 12.5 11.3525 12.5 10.9381C12.5 10.5237 12.6646 10.1263 12.9576 9.83331C13.2507 9.5403 13.6481 9.37569 14.0625 9.37569ZM12.5 5.86022C12.5 5.21083 13.0225 4.68839 13.6719 4.68839C17.3389 4.68839 20.3125 7.6619 20.3125 11.3287C20.3125 11.9781 19.79 12.5006 19.1406 12.5006C18.4912 12.5006 17.9688 11.9781 17.9688 11.3287C17.9688 8.95578 16.0449 7.03204 13.6719 7.03204C13.0225 7.03204 12.5 6.5096 12.5 5.86022ZM5.7373 0.0694573C6.68457 -0.18932 7.67578 0.294057 8.05176 1.20222L10.0049 5.88951C10.3369 6.68538 10.1074 7.60819 9.43848 8.15016L7.03125 10.1227C8.65723 13.5601 11.4404 16.3432 14.8779 17.9691L16.8457 15.5619C17.3926 14.893 18.3105 14.6635 19.1064 14.9956L23.7939 16.9486C24.7021 17.3246 25.1855 18.3157 24.9268 19.2629L23.7549 23.5596C23.5254 24.4092 22.7539 25 21.875 25C9.79492 25 0 15.2055 0 3.12596C0 2.2471 0.59082 1.47565 1.44043 1.24128L5.7373 0.0694573Z" fill="url(#paint0_linear_992_98)"/>
<defs>
<linearGradient id="paint0_linear_992_98" x1="12.5" y1="0" x2="12.5" y2="25" gradientUnits="userSpaceOnUse">
<stop stop-color="#D16E82"/>
<stop offset="1" stop-color="#E4ABAA"/>
</linearGradient>
</defs>
</svg>
