<svg width="44" height="49" viewBox="0 0 44 49" fill="none" xmlns="http://www.w3.org/2000/svg">
<path d="M13.2786 1.69395C13.8089 0.650781 14.8991 0 16.0875 0H27.9125C29.1009 0 30.1911 0.650781 30.7214 1.69395L31.4286 3.0625H40.8571C42.5955 3.0625 44 4.43105 44 6.125C44 7.81895 42.5955 9.1875 40.8571 9.1875H3.14286C1.40446 9.1875 0 7.81895 0 6.125C0 4.43105 1.40446 3.0625 3.14286 3.0625H12.5714L13.2786 1.69395ZM3.14286 12.25H40.8571V42.875C40.8571 46.2533 38.0384 49 34.5714 49H9.42857C5.96161 49 3.14286 46.2533 3.14286 42.875V12.25ZM12.5714 18.375C11.7071 18.375 11 19.0641 11 19.9062V41.3438C11 42.1859 11.7071 42.875 12.5714 42.875C13.4357 42.875 14.1429 42.1859 14.1429 41.3438V19.9062C14.1429 19.0641 13.4357 18.375 12.5714 18.375ZM22 18.375C21.1357 18.375 20.4286 19.0641 20.4286 19.9062V41.3438C20.4286 42.1859 21.1357 42.875 22 42.875C22.8643 42.875 23.5714 42.1859 23.5714 41.3438V19.9062C23.5714 19.0641 22.8643 18.375 22 18.375ZM31.4286 18.375C30.5643 18.375 29.8571 19.0641 29.8571 19.9062V41.3438C29.8571 42.1859 30.5643 42.875 31.4286 42.875C32.2929 42.875 33 42.1859 33 41.3438V19.9062C33 19.0641 32.2929 18.375 31.4286 18.375Z" fill="black"/>
</svg>
