<svg width="141" height="51" viewBox="0 0 141 51" fill="none" xmlns="http://www.w3.org/2000/svg">
<path d="M22.416 28.3906L39.4735 45.2729" stroke="#F1F1F1" stroke-width="5.5" stroke-linecap="round"/>
<path d="M3.67578 45.7671L40.6178 9.42578" stroke="#FDDE45" stroke-width="5.5" stroke-linecap="round"/>
<path d="M40.0836 6.26562L1 44.187V8.89905C1 7.21366 3.32003 6.79231 4.21235 6.79231L40.0836 6.26562Z" fill="#1EA761"/>
<path d="M21.8801 31.5469L5.81836 47.8741H38.4773L21.8801 31.5469Z" fill="#3F8CF4"/>
<path d="M42.7595 11.3537L25.4375 27.8612L33.9391 36.4167L42.6787 44.75L42.7595 11.3537Z" fill="#D3D3D1"/>
<path d="M36.3375 35.7612C36.3375 36.8146 34.1959 36.8146 34.1959 35.7612C34.7313 26.8076 27.7712 19.9607 26.1651 16.8006C25.0943 15.0449 23.5952 10.4803 26.1651 6.26685C28.7349 2.05337 30.4472 1 35.8021 1C40.0842 1 42.3224 3.04536 44.3684 6.26685C47.0443 10.4803 45.6176 14.8694 44.3684 16.8006C42.2268 21.014 35.8021 29.9677 36.3375 35.7612Z" fill="#DE4C3F" stroke="#84312B" stroke-width="0.1" stroke-linecap="round"/>
<path d="M38.4774 11.5312C38.4774 13.2765 37.0392 14.6913 35.2651 14.6913C33.491 14.6913 32.0527 13.2765 32.0527 11.5312C32.0527 9.78592 33.491 8.37109 35.2651 8.37109C37.0392 8.37109 38.4774 9.78592 38.4774 11.5312Z" fill="#87291D"/>
<path d="M65.5887 9.05966C65.4239 8.54261 65.2023 8.07955 64.9239 7.67045C64.6512 7.25568 64.3245 6.90341 63.9438 6.61364C63.5631 6.31818 63.1284 6.09375 62.6398 5.94034C62.1569 5.78693 61.6256 5.71023 61.0461 5.71023C60.0631 5.71023 59.1767 5.96307 58.387 6.46875C57.5972 6.97443 56.9722 7.71591 56.512 8.69318C56.0574 9.66477 55.8301 10.8551 55.8301 12.2642C55.8301 13.679 56.0603 14.875 56.5205 15.8523C56.9807 16.8295 57.6114 17.571 58.4125 18.0767C59.2137 18.5824 60.1256 18.8352 61.1483 18.8352C62.0972 18.8352 62.9239 18.642 63.6284 18.2557C64.3387 17.8693 64.887 17.3239 65.2733 16.6193C65.6654 15.9091 65.8614 15.0739 65.8614 14.1136L66.5432 14.2415H61.5489V12.0682H68.4097V14.054C68.4097 15.5199 68.0972 16.7926 67.4722 17.8722C66.8529 18.946 65.9949 19.7756 64.8983 20.3608C63.8074 20.946 62.5574 21.2386 61.1483 21.2386C59.5688 21.2386 58.1824 20.875 56.9892 20.1477C55.8017 19.4205 54.8756 18.3892 54.2108 17.054C53.5461 15.7131 53.2137 14.1222 53.2137 12.2812C53.2137 10.8892 53.4069 9.6392 53.7932 8.53125C54.1796 7.4233 54.7222 6.48295 55.4211 5.71023C56.1256 4.93182 56.9523 4.33807 57.9012 3.92898C58.8557 3.5142 59.8983 3.30682 61.029 3.30682C61.9722 3.30682 62.85 3.44602 63.6625 3.72443C64.4807 4.00284 65.208 4.39773 65.8444 4.90909C66.4864 5.42045 67.0176 6.02841 67.4381 6.73295C67.8586 7.43182 68.1426 8.20739 68.2904 9.05966H65.5887Z" fill="#4689E4"/>
<path d="M78.4769 21.2642C77.2496 21.2642 76.1786 20.983 75.2638 20.4205C74.3491 19.858 73.6388 19.071 73.1332 18.0597C72.6275 17.0483 72.3746 15.8665 72.3746 14.5142C72.3746 13.1562 72.6275 11.9687 73.1332 10.9517C73.6388 9.93466 74.3491 9.14489 75.2638 8.58239C76.1786 8.01989 77.2496 7.73864 78.4769 7.73864C79.7042 7.73864 80.7752 8.01989 81.69 8.58239C82.6048 9.14489 83.315 9.93466 83.8207 10.9517C84.3263 11.9687 84.5792 13.1562 84.5792 14.5142C84.5792 15.8665 84.3263 17.0483 83.8207 18.0597C83.315 19.071 82.6048 19.858 81.69 20.4205C80.7752 20.983 79.7042 21.2642 78.4769 21.2642ZM78.4854 19.125C79.2809 19.125 79.94 18.9148 80.4627 18.4943C80.9854 18.0739 81.3718 17.5142 81.6218 16.8153C81.8775 16.1165 82.0053 15.3466 82.0053 14.5057C82.0053 13.6705 81.8775 12.9034 81.6218 12.2045C81.3718 11.5 80.9854 10.9347 80.4627 10.5085C79.94 10.0824 79.2809 9.86932 78.4854 9.86932C77.6843 9.86932 77.0195 10.0824 76.4911 10.5085C75.9684 10.9347 75.5792 11.5 75.3235 12.2045C75.0735 12.9034 74.9485 13.6705 74.9485 14.5057C74.9485 15.3466 75.0735 16.1165 75.3235 16.8153C75.5792 17.5142 75.9684 18.0739 76.4911 18.4943C77.0195 18.9148 77.6843 19.125 78.4854 19.125Z" fill="#E23238"/>
<path d="M94.5082 21.2642C93.2809 21.2642 92.2099 20.983 91.2951 20.4205C90.3803 19.858 89.6701 19.071 89.1644 18.0597C88.6587 17.0483 88.4059 15.8665 88.4059 14.5142C88.4059 13.1562 88.6587 11.9687 89.1644 10.9517C89.6701 9.93466 90.3803 9.14489 91.2951 8.58239C92.2099 8.01989 93.2809 7.73864 94.5082 7.73864C95.7354 7.73864 96.8065 8.01989 97.7212 8.58239C98.636 9.14489 99.3462 9.93466 99.8519 10.9517C100.358 11.9687 100.61 13.1562 100.61 14.5142C100.61 15.8665 100.358 17.0483 99.8519 18.0597C99.3462 19.071 98.636 19.858 97.7212 20.4205C96.8065 20.983 95.7354 21.2642 94.5082 21.2642ZM94.5167 19.125C95.3121 19.125 95.9712 18.9148 96.494 18.4943C97.0167 18.0739 97.4031 17.5142 97.6531 16.8153C97.9087 16.1165 98.0366 15.3466 98.0366 14.5057C98.0366 13.6705 97.9087 12.9034 97.6531 12.2045C97.4031 11.5 97.0167 10.9347 96.494 10.5085C95.9712 10.0824 95.3121 9.86932 94.5167 9.86932C93.7156 9.86932 93.0508 10.0824 92.5224 10.5085C91.9996 10.9347 91.6104 11.5 91.3548 12.2045C91.1048 12.9034 90.9798 13.6705 90.9798 14.5057C90.9798 15.3466 91.1048 16.1165 91.3548 16.8153C91.6104 17.5142 91.9996 18.0739 92.5224 18.4943C93.0508 18.9148 93.7156 19.125 94.5167 19.125Z" fill="#F4C310"/>
<path d="M110.336 26.1818C109.296 26.1818 108.401 26.0455 107.651 25.7727C106.907 25.5 106.299 25.1392 105.828 24.6903C105.356 24.2415 105.004 23.75 104.771 23.2159L106.961 22.3125C107.115 22.5625 107.319 22.8267 107.575 23.1051C107.836 23.3892 108.188 23.6307 108.632 23.8295C109.08 24.0284 109.657 24.1278 110.362 24.1278C111.328 24.1278 112.126 23.892 112.757 23.4205C113.387 22.9545 113.703 22.2102 113.703 21.1875V18.6136H113.541C113.387 18.892 113.166 19.2017 112.876 19.5426C112.592 19.8835 112.2 20.179 111.7 20.429C111.2 20.679 110.549 20.804 109.748 20.804C108.714 20.804 107.782 20.5625 106.953 20.0795C106.129 19.5909 105.475 18.8722 104.992 17.9233C104.515 16.9687 104.276 15.7955 104.276 14.4034C104.276 13.0114 104.512 11.8182 104.984 10.8239C105.461 9.82955 106.115 9.06818 106.944 8.53977C107.774 8.00568 108.714 7.73864 109.765 7.73864C110.578 7.73864 111.234 7.875 111.734 8.14773C112.234 8.41477 112.623 8.72727 112.901 9.08523C113.186 9.44318 113.404 9.75852 113.558 10.0312H113.745V7.90909H116.242V21.2898C116.242 22.4148 115.981 23.3381 115.458 24.0597C114.936 24.7813 114.228 25.3153 113.336 25.6619C112.45 26.0085 111.45 26.1818 110.336 26.1818ZM110.311 18.6903C111.043 18.6903 111.663 18.5199 112.168 18.179C112.68 17.8324 113.066 17.3381 113.328 16.696C113.595 16.0483 113.728 15.2727 113.728 14.3693C113.728 13.4886 113.597 12.7131 113.336 12.0426C113.075 11.3722 112.691 10.8494 112.186 10.4744C111.68 10.0937 111.055 9.90341 110.311 9.90341C109.543 9.90341 108.904 10.1023 108.393 10.5C107.882 10.892 107.495 11.4261 107.234 12.1023C106.978 12.7784 106.85 13.5341 106.85 14.3693C106.85 15.2273 106.981 15.9801 107.242 16.6278C107.504 17.2756 107.89 17.7812 108.401 18.1449C108.918 18.5085 109.555 18.6903 110.311 18.6903Z" fill="#4787E7"/>
<path d="M123.036 3.54545V21H120.488V3.54545H123.036Z" fill="#44B35B"/>
<path d="M133.296 21.2642C132.006 21.2642 130.896 20.9886 129.964 20.4375C129.038 19.8807 128.322 19.0994 127.816 18.0938C127.316 17.0824 127.066 15.8977 127.066 14.5398C127.066 13.1989 127.316 12.017 127.816 10.9943C128.322 9.97159 129.026 9.1733 129.93 8.59943C130.839 8.02557 131.901 7.73864 133.117 7.73864C133.856 7.73864 134.572 7.8608 135.265 8.10511C135.958 8.34943 136.58 8.73295 137.131 9.25568C137.683 9.77841 138.117 10.4574 138.435 11.2926C138.754 12.1222 138.913 13.1307 138.913 14.3182V15.2216H128.506V13.3125H136.415C136.415 12.642 136.279 12.0483 136.006 11.5312C135.734 11.0085 135.35 10.5966 134.856 10.2955C134.367 9.99432 133.793 9.84375 133.134 9.84375C132.418 9.84375 131.793 10.0199 131.259 10.3722C130.731 10.7187 130.322 11.1733 130.032 11.7358C129.748 12.2926 129.606 12.8977 129.606 13.5511V15.0426C129.606 15.9176 129.759 16.6619 130.066 17.2756C130.379 17.8892 130.813 18.358 131.37 18.6818C131.927 19 132.577 19.1591 133.322 19.1591C133.805 19.1591 134.245 19.0909 134.643 18.9545C135.04 18.8125 135.384 18.6023 135.674 18.3239C135.964 18.0455 136.185 17.7017 136.339 17.2926L138.751 17.7273C138.558 18.4375 138.211 19.0597 137.711 19.5938C137.217 20.1222 136.594 20.5341 135.844 20.8295C135.1 21.1193 134.251 21.2642 133.296 21.2642Z" fill="#DF2E35"/>
<path d="M54.9118 30.9663H57.014L61.9572 43.0401H62.1277L67.0708 30.9663H69.1731V45.5117H67.5254V34.4606H67.3833L62.8379 45.5117H61.247L56.7015 34.4606H56.5595V45.5117H54.9118V30.9663ZM75.6877 45.7674C74.9964 45.7674 74.369 45.6372 73.8056 45.3768C73.2421 45.1116 72.7947 44.7305 72.4632 44.2333C72.1318 43.7314 71.9661 43.1254 71.9661 42.4151C71.9661 41.7901 72.0892 41.2835 72.3354 40.8952C72.5816 40.5022 72.9107 40.1945 73.3226 39.9719C73.7346 39.7494 74.1891 39.5837 74.6863 39.4748C75.1882 39.3612 75.6924 39.2712 76.199 39.2049C76.8619 39.1197 77.3993 39.0558 77.8113 39.0131C78.2279 38.9658 78.531 38.8877 78.7203 38.7788C78.9145 38.6699 79.0115 38.4805 79.0115 38.2106V38.1538C79.0115 37.453 78.8198 36.9085 78.4363 36.5202C78.0575 36.132 77.4822 35.9379 76.7104 35.9379C75.9102 35.9379 75.2828 36.113 74.8283 36.4634C74.3738 36.8138 74.0542 37.1879 73.8695 37.5856L72.2786 37.0174C72.5627 36.3545 72.9415 35.8384 73.415 35.4691C73.8932 35.0951 74.414 34.8346 74.9775 34.6879C75.5456 34.5363 76.1043 34.4606 76.6536 34.4606C77.004 34.4606 77.4064 34.5032 77.861 34.5884C78.3203 34.6689 78.763 34.837 79.1891 35.0927C79.62 35.3484 79.9775 35.7343 80.2615 36.2504C80.5456 36.7665 80.6877 37.4577 80.6877 38.3242V45.5117H79.0115V44.0344H78.9263C78.8127 44.2712 78.6233 44.5245 78.3581 44.7944C78.093 45.0643 77.7402 45.2939 77.2999 45.4833C76.8596 45.6727 76.3221 45.7674 75.6877 45.7674ZM75.9434 44.2617C76.6062 44.2617 77.165 44.1315 77.6195 43.8711C78.0788 43.6107 78.4244 43.2745 78.6564 42.8626C78.8932 42.4506 79.0115 42.0174 79.0115 41.5629V40.0288C78.9405 40.114 78.7843 40.1921 78.5428 40.2631C78.306 40.3294 78.0314 40.3886 77.7189 40.4407C77.4112 40.488 77.1105 40.5307 76.8169 40.5685C76.5281 40.6017 76.2937 40.6301 76.1138 40.6538C75.6782 40.7106 75.271 40.8029 74.8922 40.9308C74.5182 41.0539 74.2151 41.2409 73.9831 41.4918C73.7559 41.738 73.6422 42.0742 73.6422 42.5004C73.6422 43.0827 73.8577 43.5231 74.2885 43.8214C74.7241 44.1149 75.2757 44.2617 75.9434 44.2617ZM83.747 49.6026V34.6026H85.3663V36.3356H85.5652C85.6883 36.1462 85.8587 35.9047 86.0765 35.6112C86.2991 35.3129 86.6163 35.0477 87.0282 34.8157C87.4449 34.579 88.0083 34.4606 88.7186 34.4606C89.6371 34.4606 90.4468 34.6902 91.1475 35.1495C91.8483 35.6088 92.3952 36.2598 92.7882 37.1026C93.1812 37.9454 93.3777 38.9397 93.3777 40.0856C93.3777 41.2409 93.1812 42.2423 92.7882 43.0898C92.3952 43.9326 91.8507 44.5861 91.1547 45.0501C90.4586 45.5094 89.6561 45.739 88.747 45.739C88.0462 45.739 87.4851 45.623 87.0637 45.391C86.6423 45.1542 86.318 44.8867 86.0907 44.5884C85.8635 44.2854 85.6883 44.0344 85.5652 43.8356H85.4231V49.6026H83.747ZM85.3947 40.0572C85.3947 40.881 85.5154 41.6078 85.7569 42.2376C85.9984 42.8626 86.3511 43.3526 86.8152 43.7077C87.2792 44.0581 87.8474 44.2333 88.5197 44.2333C89.2205 44.2333 89.8052 44.0487 90.274 43.6793C90.7475 43.3053 91.1026 42.8034 91.3393 42.1737C91.5808 41.5392 91.7015 40.8337 91.7015 40.0572C91.7015 39.2901 91.5832 38.5988 91.3464 37.9833C91.1144 37.363 90.7617 36.873 90.2882 36.5131C89.8194 36.1486 89.2299 35.9663 88.5197 35.9663C87.8379 35.9663 87.265 36.1391 86.801 36.4847C86.3369 36.8256 85.9866 37.3039 85.7498 37.9194C85.5131 38.5302 85.3947 39.2428 85.3947 40.0572ZM103.662 37.0458L102.156 37.4719C102.061 37.221 101.922 36.9772 101.737 36.7404C101.557 36.4989 101.311 36.3001 100.998 36.1438C100.686 35.9876 100.286 35.9094 99.7981 35.9094C99.1305 35.9094 98.5742 36.0633 98.1291 36.3711C97.6887 36.6741 97.4686 37.06 97.4686 37.5288C97.4686 37.9454 97.6201 38.2745 97.9231 38.516C98.2261 38.7575 98.6996 38.9587 99.3436 39.1197L100.963 39.5174C101.938 39.7541 102.665 40.1164 103.143 40.604C103.622 41.087 103.861 41.7096 103.861 42.4719C103.861 43.0969 103.681 43.6557 103.321 44.1481C102.966 44.6405 102.469 45.0288 101.829 45.3129C101.19 45.5969 100.447 45.739 99.5993 45.739C98.4866 45.739 97.5656 45.4975 96.8365 45.0146C96.1073 44.5316 95.6457 43.8261 95.4515 42.8981L97.0424 42.5004C97.194 43.0875 97.4804 43.5278 97.9018 43.8214C98.3279 44.1149 98.8843 44.2617 99.5708 44.2617C100.352 44.2617 100.972 44.096 101.432 43.7646C101.896 43.4284 102.128 43.0259 102.128 42.5572C102.128 42.1784 101.995 41.8612 101.73 41.6055C101.465 41.3451 101.058 41.1509 100.508 41.0231L98.6902 40.5969C97.6911 40.3602 96.9572 39.9933 96.4885 39.4961C96.0244 38.9942 95.7924 38.3668 95.7924 37.614C95.7924 36.9985 95.9653 36.454 96.3109 35.9805C96.6613 35.507 97.1371 35.1353 97.7385 34.8654C98.3445 34.5955 99.0311 34.4606 99.7981 34.4606C100.878 34.4606 101.725 34.6973 102.341 35.1708C102.961 35.6443 103.401 36.2693 103.662 37.0458Z" fill="#767676"/>
</svg>
