<svg width="130" height="52" viewBox="0 0 130 52" fill="none" xmlns="http://www.w3.org/2000/svg">
<path d="M65.6059 18.1676L63.8691 29.1804C70.9321 19.5693 73.5662 14.2742 74.0004 12.8281L65.6059 18.1676Z" fill="#E10202"/>
<path d="M64.3352 18.7199C69.7282 18.7199 74.1705 14.6785 74.1705 9.60995C74.1705 4.54136 69.7282 0.5 64.3352 0.5C58.9422 0.5 54.5 4.54136 54.5 9.60995C54.5 14.6785 58.9422 18.7199 64.3352 18.7199Z" fill="#E10202" stroke="#E10202"/>
<path d="M64.336 14.0437C66.9313 14.0437 69.1056 12.0941 69.1056 9.60585C69.1056 7.11757 66.9313 5.16797 64.336 5.16797C61.7407 5.16797 59.5664 7.11757 59.5664 9.60585C59.5664 12.0941 61.7407 14.0437 64.336 14.0437Z" fill="#E4ABAA" stroke="#E10202"/>
<path d="M12.1527 47.1797H9.95099V34.5163H7.19531C6.47562 34.5163 5.89086 34.6252 5.44105 34.843C4.99124 35.0561 4.66217 35.3639 4.45384 35.7663C4.2455 36.1688 4.14134 36.6446 4.14134 37.1939C4.14134 37.7384 4.2455 38.2048 4.45384 38.593C4.66217 38.9813 4.98887 39.2772 5.43395 39.4808C5.87902 39.6844 6.45904 39.7862 7.17401 39.7862H10.9027V41.6754H6.96804C5.84588 41.6754 4.91075 41.4884 4.16264 41.1143C3.41927 40.7403 2.86056 40.2171 2.48651 39.5447C2.11719 38.8677 1.93253 38.084 1.93253 37.1939C1.93253 36.299 2.11719 35.5107 2.48651 34.8288C2.85582 34.1423 3.41217 33.6049 4.15554 33.2166C4.90365 32.8284 5.83878 32.6342 6.96094 32.6342H12.1527V47.1797ZM4.9723 40.6172H7.40128L3.87145 47.1797H1.37855L4.9723 40.6172Z" fill="#E10202"/>
<path d="M23.3114 41.1357V42.3288H16.8981V41.1357H23.3114ZM17.2106 36.2706V47.1797H15.9464V36.2706H17.2106ZM24.2418 36.2706V47.1797H22.9776V36.2706H24.2418ZM26.3139 50.2834V45.9865H27.2585C27.4953 45.7214 27.7012 45.4349 27.8764 45.1271C28.0516 44.8194 28.2031 44.469 28.331 44.076C28.4635 43.6783 28.5748 43.2166 28.6648 42.6911C28.7547 42.1607 28.8305 41.5429 28.892 40.8374L29.2898 36.2706H35.7457V45.9865H37.3651V50.2834H36.1009V47.1797H27.5852V50.2834H26.3139ZM28.7145 45.9865H34.4815V37.4638H30.4688L30.142 40.8374C30.0284 41.9832 29.8674 42.9822 29.6591 43.8345C29.4508 44.6868 29.1359 45.4041 28.7145 45.9865ZM44.185 47.407C43.167 47.407 42.2863 47.1702 41.543 46.6967C40.7996 46.2185 40.2243 45.558 39.8171 44.7152C39.4147 43.8677 39.2134 42.8923 39.2134 41.7891C39.2134 40.6906 39.4147 39.7152 39.8171 38.8629C40.2243 38.0059 40.7854 37.3359 41.5004 36.853C42.2201 36.3653 43.051 36.1214 43.9933 36.1214C44.5851 36.1214 45.1557 36.2304 45.7049 36.4482C46.2541 36.6612 46.7466 36.9903 47.1822 37.4354C47.6225 37.8757 47.9705 38.4321 48.2262 39.1044C48.4819 39.772 48.6097 40.5627 48.6097 41.4766V42.1016H40.087V40.9865H47.3171C47.3171 40.2857 47.1751 39.656 46.891 39.0973C46.6116 38.5339 46.221 38.0888 45.7191 37.7621C45.2219 37.4354 44.6467 37.272 43.9933 37.272C43.302 37.272 42.6935 37.4567 42.168 37.826C41.6424 38.1953 41.2305 38.683 40.9322 39.2891C40.6386 39.8951 40.4895 40.558 40.4847 41.2777V41.9453C40.4847 42.8118 40.6339 43.5694 40.9322 44.218C41.2352 44.862 41.6637 45.3615 42.2177 45.7166C42.7717 46.0717 43.4274 46.2493 44.185 46.2493C44.7011 46.2493 45.1533 46.1688 45.5415 46.0078C45.9345 45.8468 46.2636 45.6314 46.5288 45.3615C46.7987 45.0869 47.0022 44.7862 47.1396 44.4595L48.3398 44.8501C48.1741 45.3094 47.9019 45.7332 47.5231 46.1214C47.149 46.5097 46.6803 46.8222 46.1168 47.0589C45.5581 47.291 44.9142 47.407 44.185 47.407ZM51.3956 47.1797V36.2706H52.6598V41.1783H53.8459L57.9013 36.2706H59.5348L55.1598 41.5192L59.6342 47.1797H58.0007L54.2365 42.3714H52.6598V47.1797H51.3956ZM65.5202 47.407C64.5449 47.407 63.695 47.1631 62.9705 46.6754C62.2508 46.1877 61.6921 45.5201 61.2944 44.6726C60.8967 43.825 60.6978 42.8591 60.6978 41.7749C60.6978 40.6811 60.899 39.7081 61.3015 38.8558C61.7087 38.0036 62.2721 37.3359 62.9918 36.853C63.7115 36.3653 64.5472 36.1214 65.4989 36.1214C66.2281 36.1214 66.8886 36.2635 67.4805 36.5476C68.0723 36.8269 68.56 37.2223 68.9435 37.7337C69.3318 38.2403 69.5756 38.8321 69.6751 39.5092H68.3967C68.2641 38.8937 67.9445 38.3681 67.4379 37.9325C66.936 37.4922 66.2968 37.272 65.5202 37.272C64.8242 37.272 64.2087 37.4614 63.6737 37.8402C63.1386 38.2143 62.7196 38.7375 62.4165 39.4098C62.1183 40.0774 61.9691 40.8516 61.9691 41.7322C61.9691 42.6177 62.1159 43.4013 62.4094 44.0831C62.703 44.7602 63.1149 45.2905 63.6452 45.674C64.1803 46.0575 64.8053 46.2493 65.5202 46.2493C66.0032 46.2493 66.4435 46.1593 66.8413 45.9794C67.2437 45.7947 67.5799 45.5343 67.8498 45.1982C68.1244 44.862 68.3091 44.4619 68.4038 43.9979H69.6822C69.5875 44.656 69.3531 45.2431 68.979 45.7592C68.6097 46.2706 68.1291 46.6731 67.5373 46.9666C66.9502 47.2602 66.2778 47.407 65.5202 47.407Z" fill="black"/>
<path d="M81.6222 47.1797L76.6009 40.1342H74.1932V47.1797H73.3054V32.6342H74.1932V39.3175H76.0611L80.9545 32.6342H82.0199L77.1122 39.3459L82.6875 47.1797H81.6222ZM88 47.4141C87.3703 47.4141 86.7926 47.2886 86.267 47.0376C85.7462 46.7867 85.3272 46.4197 85.0099 45.9368C84.6974 45.4538 84.5412 44.8667 84.5412 44.1754C84.5412 43.7209 84.6217 43.3208 84.7827 42.9751C84.9437 42.6295 85.1922 42.3312 85.5284 42.0803C85.8646 41.8293 86.2955 41.6233 86.821 41.4624C87.3466 41.2966 87.974 41.1688 88.7031 41.0788C89.2571 41.0125 89.7519 40.9486 90.1875 40.8871C90.6231 40.8208 90.964 40.719 91.2102 40.5817C91.4612 40.4444 91.5866 40.236 91.5866 39.9567V39.5021C91.5866 38.7067 91.3357 38.0746 90.8338 37.6058C90.3319 37.1371 89.6406 36.9027 88.7599 36.9027C87.9787 36.9027 87.3205 37.0755 86.7855 37.4212C86.2552 37.7621 85.8835 38.2024 85.6705 38.7422L84.8537 38.4368C85.062 37.916 85.3627 37.4827 85.7557 37.1371C86.1534 36.7914 86.608 36.5334 87.1193 36.3629C87.6354 36.1925 88.1752 36.1072 88.7386 36.1072C89.2263 36.1072 89.6903 36.1759 90.1307 36.3132C90.5758 36.4505 90.9711 36.6589 91.3168 36.9382C91.6671 37.2176 91.9441 37.575 92.1477 38.0107C92.3513 38.4415 92.4531 38.9576 92.4531 39.5589V47.1797H91.5866V45.2124H91.5227C91.3333 45.6196 91.0729 45.9912 90.7415 46.3274C90.4148 46.6589 90.0194 46.924 89.5554 47.1229C89.0961 47.317 88.5777 47.4141 88 47.4141ZM88.0852 46.6115C88.767 46.6115 89.3707 46.4458 89.8963 46.1143C90.4266 45.7782 90.8409 45.3189 91.1392 44.7365C91.4375 44.1541 91.5866 43.4936 91.5866 42.755V41.1499C91.4777 41.2446 91.3191 41.3298 91.1108 41.4055C90.9072 41.4766 90.6752 41.5405 90.4148 41.5973C90.1591 41.6494 89.8892 41.6967 89.6051 41.7393C89.3258 41.7772 89.0535 41.8127 88.7884 41.8459C87.9929 41.9406 87.3442 42.0874 86.8423 42.2862C86.3452 42.4804 85.9806 42.736 85.7486 43.0533C85.5213 43.3705 85.4077 43.754 85.4077 44.2038C85.4077 44.9472 85.6634 45.5343 86.1747 45.9652C86.6861 46.3961 87.3229 46.6115 88.0852 46.6115ZM96.0859 51.2706V36.2706H96.9311V38.7067H97.0376C97.2081 38.2379 97.4472 37.8071 97.755 37.4141C98.0675 37.0211 98.4534 36.7062 98.9126 36.4695C99.3767 36.228 99.9212 36.1072 100.546 36.1072C101.427 36.1072 102.194 36.3487 102.847 36.8317C103.501 37.3146 104.007 37.9822 104.367 38.8345C104.727 39.6821 104.907 40.6551 104.907 41.7536C104.907 42.852 104.725 43.8274 104.36 44.6797C104 45.5272 103.494 46.1948 102.84 46.6825C102.192 47.1655 101.432 47.407 100.56 47.407C99.9401 47.407 99.3956 47.2886 98.9268 47.0518C98.4628 46.8151 98.0722 46.5002 97.755 46.1072C97.4425 45.7095 97.2034 45.2739 97.0376 44.8004H96.9524V51.2706H96.0859ZM96.9382 41.7464C96.9382 42.6745 97.0803 43.5054 97.3643 44.2393C97.6484 44.9685 98.0556 45.5462 98.5859 45.9723C99.1162 46.3937 99.7483 46.6044 100.482 46.6044C101.226 46.6044 101.862 46.3913 102.393 45.9652C102.928 45.5343 103.335 44.9519 103.614 44.218C103.898 43.4841 104.04 42.6603 104.04 41.7464C104.04 40.8326 103.901 40.0111 103.621 39.282C103.342 38.5528 102.937 37.9775 102.407 37.5561C101.877 37.13 101.235 36.9169 100.482 36.9169C99.7389 36.9169 99.102 37.1276 98.5717 37.549C98.0462 37.9657 97.6413 38.5386 97.3572 39.2678C97.0779 39.9922 96.9382 40.8184 96.9382 41.7464ZM106.406 37.0945V36.2706H114.587V37.0945H110.951V47.1797H110.085V37.0945H106.406ZM118.169 40.7521H121.422C122.6 40.7521 123.519 41.022 124.177 41.5618C124.835 42.1016 125.164 42.8946 125.164 43.9411C125.164 44.6371 125.015 45.2266 124.717 45.7095C124.423 46.1925 123.997 46.5594 123.439 46.8104C122.88 47.0566 122.208 47.1797 121.422 47.1797H117.515V36.2706H118.375V46.3558H121.422C122.302 46.3558 123.003 46.1641 123.524 45.7805C124.045 45.3923 124.305 44.7886 124.305 43.9695C124.305 43.1551 124.045 42.5537 123.524 42.1655C123.003 41.7725 122.302 41.576 121.422 41.576H118.169V40.7521ZM127.103 47.1797V36.2706H127.97V47.1797H127.103Z" fill="black"/>
</svg>
